<svg xmlns="http://www.w3.org/2000/svg" width="32" height="32" viewBox="0 0 32 32"><path fill="#FCFFFF" stroke="#212121" stroke-linecap="round" stroke-linejoin="round" stroke-width="2" d="M25.994 10.27a2 2 0 0 0 1.336 1.953 4.001 4.001 0 0 1 1.093 6.955 2 2 0 0 0-.681 2.225 4.999 4.999 0 0 1-7.429 5.809 2 2 0 0 0-2.523.304 7.999 7.999 0 0 1-13.338-8.172 2 2 0 0 0-.4-2 7.998 7.998 0 0 1 7.385-13.217 2 2 0 0 0 1.6-.4 7.999 7.999 0 0 1 12.957 6.544v-.002z"/><path fill="#ffcd28" stroke="#212121" stroke-dasharray="0,0,6,0,0,0" stroke-linecap="round" stroke-linejoin="round" stroke-miterlimit="10" stroke-width="2" d="M17.729 22.45a5.999 5.999 0 1 0-4.226-11.228 5.999 5.999 0 0 0 4.226 11.229s0 0 0 0z"/></svg>
